<svg id="visual" viewBox="0 0 900 600" width="900" height="600" xmlns="http://www.w3.org/2000/svg" xmlns:xlink="http://www.w3.org/1999/xlink" version="1.1"><path d="M827 600L825.5 575C824 550 821 500 821 450C821 400 824 350 812 300C800 250 773 200 765.5 150C758 100 770 50 776 25L782 0L900 0L900 25C900 50 900 100 900 150C900 200 900 250 900 300C900 350 900 400 900 450C900 500 900 550 900 575L900 600Z" fill="#2e25c0"></path><path d="M656 600L651.5 575C647 550 638 500 636.5 450C635 400 641 350 633.5 300C626 250 605 200 597.5 150C590 100 596 50 599 25L602 0L783 0L777 25C771 50 759 100 766.5 150C774 200 801 250 813 300C825 350 822 400 822 450C822 500 825 550 826.5 575L828 600Z" fill="#352cd5"></path><path d="M512 600L489.5 575C467 550 422 500 428 450C434 400 491 350 507.5 300C524 250 500 200 470 150C440 100 404 50 386 25L368 0L603 0L600 25C597 50 591 100 598.5 150C606 200 627 250 634.5 300C642 350 636 400 637.5 450C639 500 648 550 652.5 575L657 600Z" fill="#3c33ea"></path><path d="M404 600L393.5 575C383 550 362 500 374 450C386 400 431 350 440 300C449 250 422 200 387.5 150C353 100 311 50 290 25L269 0L369 0L387 25C405 50 441 100 471 150C501 200 525 250 508.5 300C492 350 435 400 429 450C423 500 468 550 490.5 575L513 600Z" fill="#433bff"></path><path d="M197 600L197 575C197 550 197 500 200 450C203 400 209 350 204.5 300C200 250 185 200 174.5 150C164 100 158 50 155 25L152 0L270 0L291 25C312 50 354 100 388.5 150C423 200 450 250 441 300C432 350 387 400 375 450C363 500 384 550 394.5 575L405 600Z" fill="#5b52ff"></path><path d="M71 600L71 575C71 550 71 500 74 450C77 400 83 350 86 300C89 250 89 200 87.5 150C86 100 83 50 81.5 25L80 0L153 0L156 25C159 50 165 100 175.5 150C186 200 201 250 205.5 300C210 350 204 400 201 450C198 500 198 550 198 575L198 600Z" fill="#7068ff"></path><path d="M0 600L0 575C0 550 0 500 0 450C0 400 0 350 0 300C0 250 0 200 0 150C0 100 0 50 0 25L0 0L81 0L82.5 25C84 50 87 100 88.5 150C90 200 90 250 87 300C84 350 78 400 75 450C72 500 72 550 72 575L72 600Z" fill="#837cff"></path></svg>